<svg width="67" height="67" viewBox="0 0 67 67" fill="none" xmlns="http://www.w3.org/2000/svg">
<path d="M58.6093 40.9943L61.1283 39.602L58.3437 34.5626L55.8246 35.9549C53.893 37.0236 52.1817 38.449 50.7813 40.1555L39.2578 33.5L50.7826 26.8445C52.183 28.551 53.8943 29.9764 55.8259 31.0451L58.345 32.4374L61.1296 27.398L58.6106 26.0057C57.5991 25.447 56.6761 24.7414 55.8717 23.9119L62.8125 19.8972L59.9336 14.918L52.998 18.9196C52.6798 17.8075 52.5289 16.6542 52.5505 15.4977L52.6042 12.6188L46.8463 12.5115L46.7927 15.3904C46.752 17.5955 47.129 19.7885 47.9037 21.8535L36.3789 28.5129V15.2032C38.5565 14.8431 40.6461 14.0736 42.5371 12.9354L45.0025 11.4502L42.0307 6.51811L39.5653 8.00336C38.5743 8.59924 37.5005 9.04507 36.3789 9.32635V2.09375H30.6211V9.32635C29.4995 9.04507 28.4257 8.59924 27.4347 8.00336L24.9693 6.51811L21.9975 11.4502L24.4629 12.9354C26.3539 14.0736 28.4435 14.8431 30.6211 15.2032V28.5129L19.0963 21.8535C19.8734 19.7872 20.2522 17.5924 20.2125 15.3851L20.1589 12.5062L14.4011 12.6135L14.4547 15.4924C14.4763 16.649 14.3255 17.8023 14.0072 18.9144L7.06641 14.918L4.1875 19.9037L11.1296 23.9132C10.3252 24.7427 9.40216 25.4483 8.3907 26.007L5.87166 27.398L8.65635 32.4374L11.1754 31.0451C13.107 29.9764 14.8183 28.551 16.2187 26.8445L27.7422 33.5L16.2174 40.1555C14.817 38.449 13.1057 37.0236 11.1741 35.9549L8.65635 34.5626L5.87166 39.602L8.3907 40.9943C9.40216 41.553 10.3252 42.2586 11.1296 43.0881L4.1875 47.1094L7.06641 52.0951L14.0085 48.0869C14.3268 49.199 14.4776 50.3523 14.456 51.5089L14.4024 54.3878L20.1602 54.4951L20.2138 51.6162C20.2532 49.4084 19.874 47.2131 19.0963 45.1465L30.6211 38.487V51.7968C28.4435 52.1569 26.3539 52.9264 24.4629 54.0645L21.9975 55.5498L24.9693 60.4819L27.4347 58.9966C28.4257 58.4008 29.4995 57.9549 30.6211 57.6737V64.9062H36.3789V57.6737C37.5005 57.9549 38.5743 58.4008 39.5653 58.9966L42.0307 60.4819L45.0025 55.5498L42.5371 54.0645C40.6461 52.9264 38.5565 52.1569 36.3789 51.7968V38.487L47.9037 45.1465C47.1266 47.2128 46.7478 49.4076 46.7875 51.6149L46.8411 54.4938L52.5989 54.3865L52.5453 51.5076C52.5249 50.349 52.6775 49.1939 52.998 48.0803L59.9336 52.0886L62.8125 47.1094L55.8769 43.0933C56.679 42.2625 57.5998 41.5551 58.6093 40.9943Z" fill="url(#paint0_linear_862_6373)"/>
<defs>
<linearGradient id="paint0_linear_862_6373" x1="33.5" y1="2.09375" x2="33.5" y2="64.9062" gradientUnits="userSpaceOnUse">
<stop stop-color="#E2E7FF" stop-opacity="0"/>
<stop offset="1" stop-color="#84C2FF"/>
</linearGradient>
</defs>
</svg>
